<?xml version="1.0" encoding="utf-8"?>
<!-- Designed by Vexels.com - 2020 All Rights Reserved - https://vexels.com/terms-and-conditions/  -->
<svg version="1.1" id="Capa_1" xmlns="http://www.w3.org/2000/svg" xmlns:xlink="http://www.w3.org/1999/xlink" x="0px" y="0px"
	 viewBox="0 0 1200 1200" enable-background="new 0 0 1200 1200" xml:space="preserve">
<g>
	<path fill="#484A5B" d="M424.815,248.067h13.456l2.677,24.459l16.846,120.854c0.706,5.054,5.027,8.816,10.126,8.816h116.303
		c5.647,0,10.227-4.577,10.227-10.227c0-5.649-4.58-10.227-10.227-10.227h-107.4l-4.088-29.323l118.147-13.104
		c4.069-0.45,7.477-3.286,8.663-7.205l18.13-59.959c0.94-3.096,0.353-6.455-1.576-9.055c-1.924-2.6-4.975-4.132-8.211-4.132h-147.85
		l-2.43-22.236c-0.565-5.187-4.947-9.115-10.167-9.115h-22.624c-5.646,0-10.229,4.577-10.229,10.227
		C414.586,243.489,419.169,248.067,424.815,248.067z M594.11,279.418l-12.191,40.309l-112.011,12.425l-7.351-52.734H594.11z"/>
	<path fill="#484A5B" d="M474.426,421.017c-9.129,0-16.531,7.403-16.531,16.532c0,9.131,7.402,16.533,16.531,16.533
		c9.131,0,16.533-7.401,16.533-16.533C490.959,428.42,483.557,421.017,474.426,421.017z"/>
	<path fill="#484A5B" d="M573.054,421.017c-9.131,0-16.533,7.403-16.533,16.532c0,9.131,7.402,16.533,16.533,16.533
		c9.129,0,16.531-7.401,16.531-16.533C589.585,428.42,582.183,421.017,573.054,421.017z"/>
	<path fill="#484A5B" d="M1145.194,727.348l-114.211-71.381L967.74,483.488c-1.477-4.028-5.314-6.705-9.602-6.705h-127.46v-37.134
		v-43.945c0-5.649-4.581-10.227-10.227-10.227h-52.509c-5.647,0-10.227,4.578-10.227,10.227s4.58,10.227,10.227,10.227h42.28v33.718
		v47.362v319.926c0,5.65,4.581,10.227,10.229,10.227c5.646,0,10.227-4.577,10.227-10.227V497.238h120.317l61.989,169.063
		c0.78,2.137,2.25,3.949,4.181,5.153l112.381,70.236v219.444h-76.053c-0.006-0.065-0.024-0.126-0.03-0.19
		c-0.131-1.181-0.38-2.327-0.55-3.496c-0.312-2.12-0.605-4.245-1.046-6.323c-0.28-1.33-0.671-2.616-1.002-3.928
		c-0.474-1.866-0.927-3.739-1.501-5.564c-0.425-1.347-0.94-2.648-1.417-3.971c-0.624-1.729-1.236-3.46-1.948-5.145
		c-0.557-1.32-1.192-2.597-1.805-3.888c-0.765-1.618-1.529-3.234-2.375-4.805c-0.685-1.271-1.43-2.499-2.165-3.739
		c-0.899-1.515-1.808-3.021-2.781-4.486c-0.803-1.207-1.651-2.374-2.502-3.544c-1.027-1.412-2.068-2.807-3.164-4.164
		c-0.913-1.132-1.857-2.23-2.817-3.32c-1.143-1.304-2.313-2.58-3.521-3.825c-1.013-1.043-2.044-2.06-3.099-3.059
		c-1.261-1.196-2.554-2.353-3.876-3.485c-1.099-0.942-2.206-1.868-3.345-2.764c-1.373-1.08-2.781-2.109-4.208-3.12
		c-1.18-0.835-2.358-1.664-3.572-2.45c-1.479-0.959-2.999-1.851-4.529-2.734c-1.243-0.718-2.477-1.441-3.753-2.108
		c-1.591-0.831-3.222-1.581-4.86-2.332c-1.288-0.589-2.561-1.2-3.877-1.737c-1.717-0.701-3.48-1.302-5.241-1.913
		c-1.299-0.45-2.581-0.936-3.906-1.336c-1.874-0.564-3.794-1.008-5.71-1.466c-1.271-0.304-2.52-0.663-3.808-0.918
		c-2.145-0.426-4.337-0.708-6.526-0.997c-1.107-0.146-2.189-0.364-3.306-0.474c-3.325-0.328-6.692-0.511-10.1-0.511
		c-3.408,0-6.778,0.183-10.104,0.512c-1.12,0.111-2.205,0.329-3.312,0.475c-2.189,0.29-4.38,0.571-6.525,0.997
		c-1.301,0.258-2.561,0.619-3.844,0.927c-1.902,0.456-3.808,0.896-5.669,1.456c-1.353,0.408-2.661,0.904-3.991,1.365
		c-1.728,0.6-3.458,1.191-5.145,1.879c-1.358,0.555-2.673,1.183-4,1.793c-1.589,0.729-3.175,1.458-4.721,2.265
		c-1.332,0.696-2.624,1.451-3.921,2.202c-1.463,0.848-2.917,1.702-4.332,2.618c-1.291,0.834-2.543,1.714-3.795,2.604
		c-1.337,0.951-2.655,1.916-3.943,2.927c-1.239,0.972-2.444,1.976-3.636,3.003c-1.203,1.036-2.381,2.094-3.537,3.183
		c-1.175,1.109-2.323,2.24-3.447,3.404c-1.068,1.106-2.102,2.239-3.123,3.392c-1.098,1.243-2.176,2.497-3.214,3.792
		c-0.934,1.164-1.824,2.359-2.707,3.564c-1.009,1.375-2.006,2.753-2.948,4.178c-0.797,1.205-1.535,2.443-2.28,3.682
		c-0.907,1.506-1.811,3.01-2.644,4.565c-0.657,1.23-1.246,2.498-1.852,3.756c-0.789,1.633-1.586,3.255-2.29,4.932
		c-0.529,1.26-0.972,2.559-1.45,3.844c-0.65,1.739-1.32,3.465-1.872,5.245c-0.405,1.293-0.706,2.626-1.06,3.94
		c-0.488,1.827-1.014,3.637-1.405,5.501c-0.294,1.41-0.466,2.86-0.702,4.289c-0.298,1.811-0.655,3.602-0.857,5.443
		c-0.002,0.019-0.006,0.037-0.008,0.057H523.391c-0.006-0.065-0.024-0.126-0.03-0.19c-0.131-1.181-0.378-2.327-0.55-3.496
		c-0.31-2.12-0.605-4.245-1.044-6.323c-0.282-1.33-0.671-2.616-1.003-3.928c-0.474-1.866-0.926-3.739-1.501-5.564
		c-0.424-1.347-0.939-2.648-1.416-3.971c-0.625-1.729-1.236-3.46-1.948-5.145c-0.559-1.32-1.194-2.597-1.806-3.888
		c-0.765-1.618-1.529-3.234-2.375-4.805c-0.685-1.271-1.428-2.499-2.165-3.739c-0.899-1.515-1.806-3.021-2.781-4.486
		c-0.803-1.207-1.65-2.374-2.501-3.544c-1.027-1.412-2.069-2.807-3.165-4.164c-0.912-1.132-1.857-2.23-2.816-3.32
		c-1.145-1.304-2.313-2.58-3.523-3.825c-1.013-1.043-2.044-2.06-3.099-3.059c-1.261-1.196-2.553-2.353-3.874-3.485
		c-1.101-0.942-2.208-1.868-3.347-2.764c-1.373-1.08-2.781-2.109-4.208-3.12c-1.178-0.835-2.358-1.664-3.572-2.45
		c-1.479-0.959-2.999-1.851-4.529-2.734c-1.241-0.718-2.477-1.441-3.751-2.108c-1.591-0.831-3.224-1.581-4.86-2.332
		c-1.288-0.589-2.562-1.2-3.877-1.737c-1.717-0.701-3.48-1.302-5.241-1.913c-1.301-0.45-2.583-0.936-3.906-1.336
		c-1.874-0.564-3.795-1.008-5.71-1.466c-1.271-0.304-2.521-0.663-3.81-0.918c-2.145-0.426-4.336-0.708-6.525-0.997
		c-1.107-0.146-2.189-0.364-3.307-0.474c-3.324-0.328-6.692-0.511-10.098-0.511c-3.41,0-6.778,0.183-10.106,0.512
		c-1.124,0.111-2.213,0.33-3.324,0.477c-2.184,0.289-4.369,0.569-6.507,0.993c-1.313,0.261-2.587,0.626-3.884,0.937
		c-1.887,0.453-3.778,0.889-5.625,1.445c-1.37,0.413-2.699,0.916-4.047,1.385c-1.706,0.593-3.414,1.175-5.079,1.854
		c-1.386,0.566-2.728,1.206-4.084,1.829c-1.556,0.715-3.109,1.428-4.622,2.219c-1.375,0.716-2.704,1.493-4.041,2.269
		c-1.413,0.82-2.819,1.644-4.189,2.53c-1.348,0.869-2.655,1.787-3.959,2.717c-1.269,0.904-2.525,1.821-3.75,2.781
		c-1.309,1.025-2.583,2.087-3.843,3.172c-1.121,0.968-2.221,1.952-3.298,2.967c-1.261,1.186-2.491,2.396-3.691,3.643
		c-0.972,1.008-1.912,2.041-2.843,3.087c-1.197,1.347-2.367,2.71-3.493,4.119c-0.824,1.03-1.608,2.086-2.392,3.147
		c-1.12,1.514-2.217,3.038-3.255,4.613c-0.674,1.026-1.301,2.079-1.939,3.13c-1.027,1.685-2.038,3.376-2.967,5.122
		c-0.535,1.004-1.011,2.039-1.512,3.062c-0.907,1.852-1.808,3.702-2.606,5.612c-0.409,0.984-0.751,1.999-1.132,2.998
		c-0.762,2.004-1.526,4.004-2.165,6.064c-0.298,0.964-0.517,1.96-0.789,2.938c-0.591,2.133-1.194,4.261-1.646,6.446
		c-0.217,1.043-0.335,2.12-0.521,3.174c-0.376,2.153-0.781,4.293-1.021,6.488c-0.002,0.019-0.006,0.039-0.009,0.061h-82.736V787.73
		H345.86c5.646,0,10.227-4.578,10.227-10.227c0-5.649-4.581-10.227-10.227-10.227H235.976v-88.66h64.471
		c5.647,0,10.229-4.577,10.229-10.227c0-5.65-4.581-10.227-10.229-10.227h-64.471v-88.663H345.86
		c5.646,0,10.227-4.578,10.227-10.227s-4.581-10.227-10.227-10.227H235.976V405.931h40.888c5.646,0,10.229-4.578,10.229-10.227
		s-4.583-10.227-10.229-10.227h-51.116c-5.646,0-10.227,4.578-10.227,10.227v153.339H105.637c-5.646,0-10.227,4.578-10.227,10.227
		s4.581,10.227,10.227,10.227h109.884v88.663H60.226c-5.646,0-10.226,4.577-10.226,10.227c0,5.649,4.58,10.227,10.226,10.227
		h155.294v88.66H105.637c-5.646,0-10.227,4.578-10.227,10.227c0,5.649,4.581,10.227,10.227,10.227h109.884v183.632
		c0,5.649,4.581,10.227,10.227,10.227h92.774c4.698,52.468,48.857,93.747,102.531,93.747s97.831-41.279,102.529-93.747h325.049
		c4.698,52.468,48.855,93.747,102.523,93.747c53.676,0,97.833-41.279,102.531-93.747h86.089c5.646,0,10.227-4.578,10.227-10.227
		V736.021C1150,732.495,1148.183,729.216,1145.194,727.348z M421.053,1054.882c-45.518,0-82.544-37.028-82.55-82.278
		c0.019-0.226,0.06-0.909,0.06-1.135c0.466-45.034,37.474-81.672,82.491-81.672s82.024,36.638,82.491,81.672c0,0.034,0,0.066,0,0.1
		l0.054,0.772C503.597,1017.854,466.569,1054.882,421.053,1054.882z M951.153,1054.882c-45.51,0-82.536-37.028-82.536-82.388
		c0.013-0.194,0.046-0.833,0.046-1.026c0.466-45.034,37.474-81.672,82.491-81.672c45.019,0,82.025,36.638,82.492,81.672
		c0,0.034,0,0.066,0,0.1l0.052,0.772C1033.697,1017.854,996.671,1054.882,951.153,1054.882z"/>
	<path fill="#484A5B" d="M523.958,526.488c110.783,0,200.91-90.128,200.91-200.911c0-110.786-90.127-200.913-200.91-200.913
		c-110.789,0-200.918,90.128-200.918,200.913C323.04,436.36,413.169,526.488,523.958,526.488z M523.958,145.118
		c99.502,0,180.456,80.952,180.456,180.459c0,99.503-80.954,180.456-180.456,180.456c-99.51,0-180.464-80.953-180.464-180.456
		C343.494,226.071,424.448,145.118,523.958,145.118z"/>
</g>
</svg>
