<svg width="212" height="55" viewBox="0 0 212 55" fill="none" xmlns="http://www.w3.org/2000/svg">
<g clip-path="url(#clip0_201_68)">
<path fill-rule="evenodd" clip-rule="evenodd" d="M59.124 47.2572L64.2955 0.155029H72.9336L70.7458 19.7574C72.0528 17.9954 73.4783 16.6162 75.0221 15.6198C76.5659 14.6234 78.1999 14.1253 79.9236 14.1253C81.1362 14.1253 82.2443 14.3612 83.2484 14.8332C84.2521 15.3052 85.1188 16.0446 85.8483 17.0515C86.5774 18.0583 87.1458 19.3431 87.5529 20.9058C87.9604 22.4686 88.164 24.3302 88.164 26.4908C88.164 29.3436 87.771 32.0548 86.9846 34.6244C86.1985 37.194 85.1425 39.4541 83.8164 41.405C82.4906 43.3556 80.9609 44.9029 79.2277 46.046C77.4944 47.1892 75.6806 47.761 73.7861 47.761C72.3275 47.761 71.0441 47.4512 69.9361 46.8325C68.8277 46.2137 67.8854 45.4009 67.1086 44.3941L67.0234 44.7089C66.5651 46.2309 65.2814 47.2572 63.8353 47.2572H59.124ZM76.4001 21.5194C75.7753 21.5194 75.1264 21.7816 74.4537 22.306C73.7815 22.8304 73.1326 23.5489 72.5074 24.4613C71.8825 25.3738 71.3 26.4436 70.76 27.6707C70.2199 28.8978 69.7703 30.2036 69.4102 31.5881L68.5577 39.2024C69.1073 39.7058 69.723 40.0625 70.4048 40.2722C71.0869 40.4819 71.7404 40.5869 72.3653 40.5869C73.3885 40.5869 74.3308 40.2092 75.1928 39.4541C76.0545 38.699 76.7981 37.7079 77.4234 36.4808C78.0482 35.2537 78.536 33.8535 78.8866 32.2803C79.2368 30.707 79.4121 29.1024 79.4121 27.4662C79.4121 25.3895 79.1375 23.8792 78.5883 22.9353C78.0387 21.9914 77.3095 21.5194 76.4001 21.5194ZM114.647 47.2572H111.338C108.969 47.2572 107.048 45.1256 107.048 42.4959C107.048 42.2782 107.061 42.0608 107.088 41.8454C105.876 43.6913 104.531 45.1389 103.053 46.1877C101.576 47.2366 99.9466 47.761 98.166 47.761C97.105 47.761 96.0821 47.5249 95.0971 47.0528C94.112 46.5808 93.2408 45.8677 92.4831 44.9132C91.7253 43.9587 91.1191 42.7422 90.6646 41.2633C90.2097 39.7844 89.9825 38.0383 89.9825 36.0245C89.9825 33.0669 90.4702 30.2613 91.4457 27.6078C92.4216 24.9543 93.7855 22.6312 95.5375 20.6384C97.2898 18.6456 99.3687 17.062 101.775 15.8873C104.18 14.7126 106.823 14.1253 109.702 14.1253C111.104 14.1253 112.525 14.2301 113.964 14.4399C115.404 14.6497 116.825 15.0273 118.227 15.5726L114.647 47.2572ZM101.689 40.0522C102.333 40.0522 102.959 39.7844 103.565 39.2497C104.171 38.7146 104.744 37.9858 105.284 37.0629C105.824 36.1399 106.321 35.0596 106.775 33.822C107.23 32.5844 107.619 31.2629 107.941 29.8575L108.964 20.8272H108.452C107.012 20.8272 105.701 21.1838 104.517 21.897C103.333 22.6102 102.315 23.5803 101.462 24.8074C100.61 26.0346 99.9512 27.461 99.4872 29.0866C99.0231 30.7123 98.7912 32.4481 98.7912 34.294C98.7912 35.3428 98.8669 36.2343 99.0185 36.9685C99.1698 37.7027 99.3737 38.2952 99.6292 38.7463C99.8851 39.1974 100.188 39.5278 100.539 39.7375C100.889 39.9471 101.273 40.0522 101.689 40.0522ZM120.216 47.2572L123.796 14.6287H125.72C128.783 14.6287 131.265 17.3842 131.265 20.7833C131.265 20.9765 131.257 21.1697 131.24 21.3621C132.377 19.1386 133.609 17.429 134.935 16.2334C136.261 15.0377 137.634 14.4399 139.055 14.4399C139.85 14.4399 140.636 14.6392 141.413 15.0377L139.822 24.068C138.856 23.6066 137.937 23.3758 137.066 23.3758C135.607 23.3758 134.314 24.1047 133.187 25.5626C132.06 27.0205 131.146 29.3645 130.445 32.5949L128.854 47.2572H120.216ZM144.368 40.2092V39.6744C144.368 39.4648 144.382 39.1657 144.411 38.7776C144.439 38.3896 144.487 37.8757 144.553 37.2359C144.619 36.5962 144.709 35.7519 144.823 34.7031L146.329 21.3621H143.97C143.611 21.3621 143.308 21.231 143.061 20.9688C142.815 20.7066 142.692 20.3133 142.692 19.7889C142.692 19.7679 142.711 19.5844 142.748 19.2382C142.787 18.8921 142.824 18.525 142.862 18.137C142.9 17.7489 142.938 17.3871 142.976 17.0515C143.014 16.7158 143.033 16.527 143.033 16.4851L143.242 14.6916L147.579 14.6287L148.354 8.8867C148.644 6.74353 150.302 5.15789 152.255 5.15789H156.757L155.677 14.6916H162.27L162.212 15.2126C161.823 18.7239 159.136 21.3621 155.948 21.3621H154.939L153.518 34.1681C153.423 35.0282 153.352 35.7047 153.305 36.1976C153.257 36.6905 153.219 37.0681 153.191 37.3303C153.172 37.5086 153.153 37.6868 153.134 37.8652C153.125 37.9596 153.12 38.0173 153.12 38.0383C153.12 38.6466 153.248 39.1554 153.504 39.5644C153.759 39.9735 154.162 40.1778 154.711 40.1778C155.014 40.1778 155.265 40.1412 155.464 40.0678C155.597 40.019 156.066 39.8142 156.871 39.4541L159.769 44.9289C158.595 45.873 157.335 46.5808 155.99 47.0528C154.645 47.5249 153.291 47.761 151.927 47.761C150.79 47.761 149.767 47.5876 148.858 47.2415C147.949 46.8955 147.167 46.3921 146.514 45.7313C145.86 45.0706 145.349 44.2788 144.979 43.3556C144.61 42.4328 144.406 41.384 144.368 40.2092ZM188.297 22.6521C188.297 24.1414 188.032 25.5049 187.502 26.7425C186.972 27.9801 186.048 29.0761 184.731 30.0306C183.415 30.985 181.644 31.7978 179.418 32.4691C177.192 33.1403 174.393 33.6647 171.021 34.0423C171.059 36.2658 171.5 37.8914 172.343 38.9193C173.186 39.9472 174.431 40.4609 176.079 40.4609C176.856 40.4609 177.528 40.3875 178.097 40.2409C178.665 40.0938 179.162 39.9051 179.588 39.6744C182.143 38.2918 185.197 38.7612 187.316 40.8631L187.672 41.2164C186.63 42.3488 185.612 43.3296 184.618 44.1581C183.623 44.9865 182.6 45.6683 181.549 46.2034C180.498 46.7381 179.38 47.1315 178.196 47.3832C177.012 47.6349 175.719 47.761 174.317 47.761C172.575 47.761 170.974 47.4306 169.515 46.7698C168.056 46.1091 166.802 45.1756 165.75 43.9694C164.699 42.7632 163.885 41.3107 163.307 39.6114C162.729 37.9124 162.44 36.0245 162.44 33.9479C162.44 32.2069 162.615 30.5078 162.966 28.8506C163.316 27.1935 163.818 25.636 164.472 24.1782C165.125 22.7203 165.926 21.3778 166.873 20.1507C167.82 18.9236 168.885 17.8695 170.069 16.9885C171.253 16.1075 172.551 15.4205 173.962 14.9276C175.373 14.4347 176.875 14.1882 178.466 14.1882C180.038 14.1882 181.435 14.4399 182.657 14.9433C183.879 15.4468 184.907 16.1023 185.74 16.9099C186.574 17.7174 187.208 18.6247 187.644 19.6316C188.08 20.6384 188.297 21.6453 188.297 22.6521ZM177.955 20.7643C176.496 20.7643 175.217 21.4093 174.118 22.6993C173.02 23.9894 172.196 25.7566 171.646 28.0011C173.484 27.6865 174.971 27.3561 176.107 27.01C177.244 26.6638 178.125 26.2863 178.75 25.8772C179.375 25.4682 179.797 25.0277 180.014 24.5557C180.232 24.0838 180.341 23.5751 180.341 23.0297C180.341 22.4843 180.152 21.9704 179.773 21.488C179.394 21.0055 178.788 20.7643 177.955 20.7643ZM189.775 47.2572L193.355 14.6287H194.733C198.084 14.6287 200.8 17.6434 200.8 21.3621C201.936 19.1386 203.168 17.429 204.494 16.2334C205.82 15.0377 207.193 14.4399 208.614 14.4399C209.41 14.4399 210.196 14.6392 210.972 15.0377L209.381 24.068C208.415 23.6066 207.496 23.3758 206.625 23.3758C205.166 23.3758 203.873 24.1047 202.746 25.5626C201.619 27.0205 200.705 29.3645 200.004 32.5949L198.413 47.2572H189.775Z" fill="black"/>
<path d="M36.763 23.4369C43.653 17.6429 57.8266 -3.065 35.6803 0.583028C26.0343 2.08514 14.0765 10.8639 11.2221 21.808C9.73291 18.8815 8.08967 16.0514 6.30064 13.3317C3.64307 9.57637 -1.62429 13.2438 1.32856 17.1064C9.69506 28.1579 15.5023 41.4623 15.5023 54.8743C16.1914 48.222 17.3247 39.2971 14.7656 31.3572C15.702 32.0599 15.7698 32.1127 16.4217 32.9695C20.9494 40.4803 27.9044 46.7198 35.6803 49.7242C42.7673 52.6212 52.2162 50.9044 48.3777 39.3166C46.3106 32.9861 41.4874 27.4068 36.763 23.4369Z" fill="#FFB800"/>
</g>
<defs>
<clipPath id="clip0_201_68">
<rect width="210.833" height="55" fill="white" transform="translate(0.214111)"/>
</clipPath>
</defs>
</svg>
