<svg width="220" height="55" viewBox="0 0 220 55" fill="none" xmlns="http://www.w3.org/2000/svg">
<g clip-path="url(#clip0_201_50)">
<path d="M45.1483 20.506H53.7976V11.7351H45.1483V20.506Z" fill="black"/>
<path d="M0.697693 42.3163H8.87579V33.5454H0.697693V42.3163Z" fill="black"/>
<path d="M11.2471 55H20.0181V22.8774H11.2471V55Z" fill="#A52A2A"/>
<path d="M34.006 55.0001H42.7769V44.6877H34.006V55.0001Z" fill="#A52A2A"/>
<path d="M0.697693 20.506H31.6346V11.7351H0.697693V20.506Z" fill="black"/>
<path d="M34.006 31.1741H42.7769V0H34.006V31.1741Z" fill="#A52A2A"/>
<path d="M22.3894 42.3163H53.7976V33.5454H22.3894V42.3163Z" fill="black"/>
<path d="M96.6368 34.1565L92.715 24.583L88.7931 34.1565H96.6368ZM89.8055 16.7788H95.7947L108.445 46.5149H101.662L98.9626 39.8933H86.4613L83.7708 46.5149H77.1492L89.8055 16.7788Z" fill="black"/>
<path d="M126.075 31.3291C127.678 31.3291 128.908 30.9491 129.766 30.189C130.192 29.8091 130.528 29.3393 130.751 28.8135C130.973 28.2878 131.076 27.7192 131.052 27.1488V27.0576C131.052 25.651 130.602 24.5971 129.702 23.8958C128.802 23.1946 127.55 22.8429 125.947 22.8409H119.493V31.3169L126.075 31.3291ZM113.002 16.9885H126.498C130.237 16.9885 133.105 17.9867 135.101 19.9831C136.788 21.6694 137.631 23.9191 137.631 26.7323V26.8174C137.631 29.207 137.047 31.1538 135.88 32.6576C134.699 34.1722 133.112 35.3203 131.304 35.9684L138.515 46.5148H130.915L124.588 37.0689H119.493V46.5148H112.999L113.002 16.9885Z" fill="black"/>
<path d="M143.787 46.5118H150.281V16.9916H143.787V46.5118Z" fill="black"/>
<path d="M171.891 47.0195C169.735 47.0467 167.595 46.6596 165.585 45.8794C163.758 45.1662 162.094 44.0907 160.694 42.7176C159.317 41.3484 158.234 39.7129 157.51 37.9111C156.736 35.9786 156.348 33.9126 156.37 31.8307V31.7456C156.343 28.744 157.211 25.8022 158.863 23.2964C160.516 20.7907 162.879 18.8347 165.649 17.6787C167.611 16.8567 169.721 16.4429 171.848 16.4626C173.055 16.4536 174.261 16.5451 175.454 16.7362C176.48 16.9051 177.49 17.1666 178.47 17.5175C179.382 17.8477 180.259 18.2716 181.084 18.7822C181.914 19.2989 182.703 19.8771 183.446 20.5121L179.354 25.4463C178.819 24.9894 178.256 24.5669 177.667 24.1816C177.112 23.8207 176.526 23.5104 175.916 23.2544C175.283 22.9933 174.626 22.7958 173.955 22.6646C173.19 22.5188 172.413 22.4485 171.635 22.4548C170.49 22.4467 169.358 22.6993 168.324 23.1936C167.307 23.6799 166.391 24.3546 165.625 25.1818C164.837 26.0289 164.218 27.0185 163.801 28.0974C163.36 29.2363 163.138 30.4483 163.147 31.6696V31.7547C163.133 33.0318 163.354 34.3005 163.801 35.4972C164.214 36.6039 164.845 37.6169 165.655 38.4766C166.452 39.3192 167.413 39.9888 168.479 40.4436C169.621 40.9199 170.848 41.1568 172.085 41.1398C174.503 41.1398 176.542 40.5449 178.202 39.3552V35.0989H171.666V29.5171H184.486V42.3376C182.852 43.7022 181.025 44.8178 179.065 45.6484C176.794 46.5954 174.351 47.0622 171.891 47.0195Z" fill="black"/>
<path d="M207.683 34.1565L203.761 24.583L199.839 34.1565H207.683ZM200.851 16.7819H206.853L219.491 46.5149H212.702L210.002 39.8933H197.519L194.82 46.5149H188.198L200.851 16.7819Z" fill="black"/>
</g>
<defs>
<clipPath id="clip0_201_50">
<rect width="218.793" height="55" fill="white" transform="translate(0.697693)"/>
</clipPath>
</defs>
</svg>
