<svg width="241" height="55" viewBox="0 0 241 55" fill="none" xmlns="http://www.w3.org/2000/svg">
<g clip-path="url(#clip0_201_35)">
<path fill-rule="evenodd" clip-rule="evenodd" d="M80.0961 27.5896C78.7353 29.117 78.0548 30.9461 78.0548 33.0786C78.0548 35.211 78.7353 37.0417 80.0961 38.5676C81.457 40.095 83.1227 40.8571 85.0964 40.8571C87.1078 40.8571 88.794 40.095 90.1564 38.5676C91.5173 37.0417 92.1977 35.211 92.1977 33.0786C92.1977 30.9461 91.5173 29.1186 90.1548 27.5896C88.794 26.0637 87.1078 25.3 85.0948 25.3C83.1227 25.3 81.457 26.0637 80.0961 27.5896ZM78.4587 21.5883C79.2397 20.4427 80.4324 19.5124 82.0368 18.7943C83.6413 18.0777 85.4107 17.7194 87.3451 17.7194C91.3774 17.7194 94.8455 19.173 97.7464 22.0786C100.647 24.9857 102.098 28.7933 102.098 33.5013C102.098 38.1684 100.625 41.9744 97.682 44.9224C94.7403 47.8688 91.2344 49.3428 87.1612 49.3428C85.307 49.3428 83.6004 48.9956 82.0384 48.2994C80.4733 47.6033 79.2601 46.662 78.3958 45.474V47.8626C78.4 48.0337 78.3692 48.2039 78.3053 48.3627C78.2414 48.5216 78.1458 48.6657 78.0243 48.7863C77.9028 48.9069 77.7579 49.0015 77.5987 49.0642C77.4394 49.1269 77.2689 49.1565 77.0978 49.1511L70.9268 49.1527C70.5151 49.1527 70.1882 49.0301 69.94 48.785C69.8181 48.6653 69.7223 48.5217 69.6585 48.3632C69.5947 48.2048 69.5642 48.0349 69.5691 47.8641V6.78856C69.5691 6.41927 69.6917 6.11284 69.94 5.86613C70.1867 5.62098 70.5151 5.49841 70.9268 5.49841H77.1623C77.4907 5.49841 77.7877 5.62098 78.0564 5.86613C78.3235 6.11284 78.4587 6.41927 78.4587 6.78856V21.5867V21.5883ZM115.104 18.0306V33.9491C115.104 35.9763 115.612 37.576 116.626 38.7498C117.639 39.9268 119.14 40.513 121.129 40.513C123.078 40.513 124.586 39.9268 125.663 38.7498C126.738 37.576 127.277 36.0156 127.277 34.0701V18.0306C127.277 17.7053 127.409 17.4224 127.671 17.1788C127.907 16.9473 128.224 16.8165 128.554 16.8143H134.702C135.106 16.8143 135.431 16.9463 135.674 17.2087C135.915 17.4628 136.047 17.8014 136.041 18.1516V46.464C136.045 46.6329 136.015 46.801 135.952 46.9578C135.889 47.1146 135.795 47.2568 135.674 47.3754C135.431 47.619 135.106 47.7416 134.7 47.7416H128.554C128.218 47.7517 127.892 47.6311 127.643 47.4053C127.522 47.294 127.426 47.1576 127.363 47.0056C127.299 46.8537 127.27 46.6897 127.277 46.5253V43.978C125.086 46.6133 122.122 47.9286 118.392 47.9286C114.699 47.9286 111.767 46.7846 109.597 44.4934C107.426 42.2054 106.341 39.1757 106.341 35.4074V18.0306C106.341 17.7053 106.482 17.4224 106.765 17.1788C107.015 16.9492 107.34 16.8195 107.679 16.8143H113.766C114.132 16.8143 114.444 16.9353 114.708 17.1788C114.832 17.284 114.931 17.4146 114.999 17.5615C115.068 17.7085 115.103 17.8685 115.104 18.0306ZM153.729 16.8143C156.402 16.8143 158.76 17.2056 160.806 17.9834C162.851 18.7628 164.421 19.679 165.514 20.7303C166.485 21.5317 166.526 22.4588 165.637 23.5101L163.388 26.1611C162.659 27.0458 161.688 27.1087 160.472 26.3528C158.083 24.7107 155.836 23.8888 153.73 23.8888C152.594 23.8888 151.672 24.1088 150.964 24.552C150.257 24.9936 149.902 25.531 149.902 26.1611C149.902 27.3853 151.034 28.226 153.304 28.6896L157.981 29.6356C164.097 30.8581 167.155 33.9523 167.155 38.9227C167.155 41.9524 165.918 44.4478 163.449 46.4058C160.979 48.3654 157.758 49.3428 153.79 49.3428C149.415 49.3428 145.669 48.2051 142.551 45.9328C140.04 44.1226 139.614 42.5433 141.275 41.1966L143.948 39.0484C144.919 38.2894 145.912 38.3538 146.924 39.237C149.193 41.3018 151.582 42.3327 154.093 42.3327C155.388 42.3327 156.392 42.0797 157.101 41.5753C157.808 41.0677 158.163 40.4596 158.163 39.7414C158.163 39.0264 157.83 38.4686 157.162 38.0678C156.493 37.6687 155.408 37.3214 153.911 37.026L149.052 35.9527C146.58 35.4467 144.627 34.4174 143.189 32.857C141.751 31.3013 141.031 29.2993 141.031 26.8573C141.031 23.9941 142.186 21.604 144.495 19.6884C146.805 17.7728 149.88 16.8143 153.729 16.8143ZM193.682 48.1093V33.1917C193.682 31.0121 193.094 29.2631 191.917 27.9478C190.739 26.6326 189.117 25.9741 187.046 25.9741C184.976 25.9741 183.312 26.6436 182.054 27.9793C180.796 29.315 180.166 31.053 180.166 33.1917V48.1093C180.172 48.2788 180.14 48.4475 180.071 48.6026C180.003 48.7578 179.9 48.8953 179.77 49.005C179.508 49.2299 179.173 49.3502 178.827 49.3428H172.678C172.508 49.3452 172.34 49.3133 172.183 49.249C172.025 49.1847 171.883 49.0893 171.763 48.9685C171.643 48.8478 171.549 48.7042 171.487 48.5463C171.424 48.3884 171.394 48.2194 171.398 48.0496V6.79327C171.398 6.42398 171.52 6.11756 171.764 5.8677C171.883 5.7466 172.025 5.65141 172.183 5.58812C172.34 5.52484 172.509 5.49483 172.678 5.49998H178.826C179.194 5.49998 179.506 5.61313 179.77 5.83941C179.899 5.94858 180.002 6.08562 180.071 6.24022C180.139 6.39482 180.172 6.56295 180.166 6.73198V21.78C182.358 19.1086 185.564 17.7728 189.787 17.7728C193.641 17.7728 196.728 19.0048 199.042 21.472C201.355 23.9391 202.512 27.0427 202.512 30.7858V48.1093C202.518 48.2788 202.486 48.4476 202.417 48.6028C202.349 48.7579 202.246 48.8955 202.116 49.005C201.854 49.23 201.518 49.3503 201.173 49.3428H195.023C194.677 49.35 194.34 49.2291 194.078 49.0034C193.949 48.8939 193.846 48.7566 193.778 48.6017C193.709 48.4469 193.676 48.2785 193.682 48.1093Z" fill="#7F879E"/>
<mask id="mask0_201_35" style="mask-type:alpha" maskUnits="userSpaceOnUse" x="206" y="16" width="34" height="34">
<path d="M206.755 16.8143H239.283V49.3429H206.755V16.8143Z" fill="white"/>
</mask>
<g mask="url(#mask0_201_35)">
<path fill-rule="evenodd" clip-rule="evenodd" d="M217.26 27.5896C215.913 29.1186 215.241 30.9462 215.241 33.0786C215.241 35.211 215.913 37.0418 217.26 38.5676C218.607 40.095 220.291 40.8572 222.312 40.8572C224.331 40.8572 226.016 40.095 227.364 38.5676C228.709 37.0418 229.383 35.211 229.383 33.0786C229.383 30.9462 228.709 29.1186 227.364 27.5896C226.016 26.0638 224.331 25.3 222.312 25.3C220.291 25.3 218.607 26.0638 217.26 27.5896ZM211.229 44.7968C208.248 41.7623 206.755 37.8463 206.755 33.0472C206.755 28.2465 208.246 24.3415 211.229 21.3306C214.211 18.3198 217.742 16.8143 221.815 16.8143C223.748 16.8143 225.488 17.2056 227.029 17.9835C228.574 18.7629 229.715 19.7623 230.455 20.9833V18.3983C230.455 18.0212 230.589 17.6943 230.857 17.4193C231.125 17.1475 231.423 17.0108 231.753 17.0108H237.987C238.358 17.0108 238.666 17.1475 238.913 17.4193C239.157 17.6862 239.29 18.0366 239.283 18.3983V47.8218C239.289 47.9966 239.259 48.1706 239.195 48.3335C239.131 48.4963 239.035 48.6446 238.913 48.7693C238.793 48.8932 238.649 48.9908 238.49 49.056C238.33 49.1212 238.159 49.1525 237.987 49.148H231.753C231.423 49.148 231.125 49.0223 230.857 48.7709C230.727 48.6504 230.623 48.5034 230.554 48.3397C230.485 48.176 230.452 47.9994 230.457 47.8218V45.1739C229.715 46.3965 228.574 47.3959 227.031 48.1753C225.488 48.9532 223.731 49.3429 221.754 49.3429C217.72 49.3429 214.211 47.8265 211.229 44.7952" fill="#7F879E"/>
</g>
<mask id="mask1_201_35" style="mask-type:alpha" maskUnits="userSpaceOnUse" x="8" y="-1" width="47" height="32">
<path d="M8.75482 -0.157104H54.012V30.9572H8.75482V-0.157104Z" fill="white"/>
</mask>
<g mask="url(#mask1_201_35)">
<path fill-rule="evenodd" clip-rule="evenodd" d="M50.2845 29.3104L47.7027 30.9572L42.418 21.447C40.9707 18.8513 38.8558 16.6897 36.2924 15.1862C33.7289 13.6826 30.8101 12.8916 27.8382 12.8952H8.75482L27.4423 0.990096C28.8398 0.101028 30.4973 -0.288638 32.1446 -0.115431C33.7919 0.0577751 35.332 0.783648 36.5141 1.94395L51.6155 16.8254C55.2958 20.4507 54.6484 26.5305 50.2845 29.312" fill="#53E72E"/>
</g>
<mask id="mask2_201_35" style="mask-type:alpha" maskUnits="userSpaceOnUse" x="0" y="16" width="50" height="39">
<path d="M0.269104 16.8143H49.7691V55H0.269104V16.8143Z" fill="white"/>
</mask>
<g mask="url(#mask2_201_35)">
<path fill-rule="evenodd" clip-rule="evenodd" d="M42.2545 55H20.0345C18.9366 54.9951 17.8634 54.6741 16.943 54.0756C16.0226 53.477 15.2939 52.6261 14.8441 51.6246L0.696527 20.6172L0.485955 20.1505C0.34604 19.8472 0.272147 19.5176 0.269167 19.1835C0.266187 18.8495 0.334189 18.5187 0.46867 18.2129C0.484384 18.1705 0.506384 18.1343 0.526812 18.0888C0.716159 17.7072 1.00799 17.3859 1.36963 17.1608C1.73127 16.9357 2.14842 16.8157 2.57438 16.8143H26.8058C31.4195 16.8143 35.6687 19.3695 37.8938 23.4835L43.2461 33.3662L48.8247 43.6606C51.5825 48.7568 47.9682 55 42.2561 55" fill="#53E72E"/>
</g>
</g>
<defs>
<clipPath id="clip0_201_35">
<rect width="240.429" height="55" fill="white" transform="translate(0.269104)"/>
</clipPath>
</defs>
</svg>
