<svg width="196" height="55" viewBox="0 0 196 55" fill="none" xmlns="http://www.w3.org/2000/svg">
<g clip-path="url(#clip0_201_33)">
<path fill-rule="evenodd" clip-rule="evenodd" d="M165.364 46.5304C164.565 46.2755 163.868 45.9804 163.277 45.6443L160.495 53.1018C161.739 53.6579 163.029 54.104 164.351 54.4348C165.699 54.7709 167.174 54.9389 168.776 54.9389C171.305 54.9389 173.508 54.4099 175.384 53.3567C177.261 52.3035 178.747 50.4874 179.84 47.9188L195.269 11.3801H183.89L177.694 29.3926L171.437 11.3801H159.422L172.51 40.8987L170.741 44.8871C170.4 45.6453 169.987 46.1685 169.504 46.4636C169.021 46.7596 168.38 46.9066 167.576 46.9066C166.905 46.9066 166.167 46.7844 165.364 46.5304ZM147.676 28.4158C148.307 28.3546 148.943 28.2983 149.573 28.2582V34.0112C149.024 34.4323 148.418 34.7731 147.773 35.0234C147.116 35.2774 146.395 35.3996 145.591 35.3996C144.497 35.3996 143.643 35.1198 143.032 34.5498C142.421 33.9807 142.111 33.2531 142.111 32.3679C142.111 31.5238 142.386 30.7561 142.935 30.0591C143.485 29.3668 144.41 28.9094 145.718 28.7003C146.366 28.5764 147.019 28.4815 147.676 28.4158ZM150.27 39.8263L151.155 42.2316H160.449V22.7592C160.449 18.6284 159.249 15.5815 156.843 13.623C154.442 11.6589 151.217 10.6821 147.173 10.6821C144.263 10.6821 141.765 11.1051 139.68 11.9492C137.611 12.7786 135.698 13.9536 134.023 15.4239L138.952 20.923C139.909 20.1583 140.96 19.5203 142.08 19.0247C143.17 18.56 144.345 18.3246 145.529 18.3334C146.624 18.3334 147.575 18.6284 148.373 19.2185C149.172 19.8086 149.573 20.7339 149.573 22.001V22.7592C148.507 22.8085 147.442 22.8814 146.379 22.9778C145.121 23.096 143.868 23.2552 142.62 23.4553C141.193 23.651 139.793 24.0115 138.449 24.5295C137.141 25.0327 135.991 25.6887 135 26.4869C134.021 27.2751 133.224 28.2665 132.665 29.3926C132.095 30.5317 131.81 31.8647 131.81 33.3801C131.81 34.8553 132.059 36.1625 132.568 37.2969C133.057 38.416 133.779 39.4184 134.684 40.2379C135.59 41.0619 136.658 41.6826 137.879 42.1046C139.099 42.521 140.428 42.7348 141.862 42.7348C143.759 42.7348 145.422 42.4503 146.858 41.8802C148.287 41.3159 149.426 40.6294 150.27 39.8254V39.8263ZM82.6404 3.58555L96.314 42.2307H104.722L109.524 26.0439L114.393 42.2307H122.863L133.805 11.3791H122.486L117.933 27.7531L113.192 11.3782H105.984L101.243 27.754L93.3386 3.5865H82.6404V3.58555ZM63.0562 11.3782V19.0906H67.4199V32.621C67.4199 34.1774 67.5784 35.5868 67.8935 36.8539C68.2086 38.12 68.7481 39.1933 69.5072 40.0784C70.2644 40.9636 71.2661 41.6511 72.5074 42.1342C73.7535 42.6174 75.2803 42.8618 77.0907 42.8618C79.243 42.8618 81.1298 42.6069 82.753 42.1037C84.3753 41.5947 85.8812 40.8624 87.2695 39.8903L84.426 33.1862C83.8447 33.6294 83.2191 34.0111 82.5592 34.3254C81.882 34.6593 81.1372 34.8334 80.3821 34.8343C79.5781 34.8343 79.0644 34.5393 78.8305 33.9492C78.6013 33.3591 78.4848 32.535 78.4848 31.4818V19.0915H85.906L83.1751 11.3791H78.4848V3.60178H67.4208V11.3791H63.0562V11.3782ZM51.4584 19.1211C52.3226 20.0665 52.8162 21.3651 52.9432 23.0122H43.3345C43.5025 21.4099 44.0621 20.1228 45.0083 19.1517C45.9594 18.1854 47.0632 17.6965 48.3293 17.6965C49.5506 17.6965 50.5933 18.1739 51.4584 19.1211ZM45.0742 33.2216C43.9551 32.1894 43.3555 30.7447 43.2686 28.8875H63.3111C63.2701 22.6923 61.8912 18.109 59.1699 15.1375C56.4533 12.1678 52.7962 10.6821 48.2023 10.6821C45.9699 10.6821 43.894 11.0382 41.9766 11.7553C40.0583 12.4724 38.4055 13.5257 37.0114 14.9188C35.6173 16.3081 34.524 18.002 33.7257 20.0063C32.9217 22.0105 32.5245 24.2936 32.5245 26.8679C32.5245 29.5234 32.9418 31.8485 33.7859 33.8527C34.6309 35.8513 35.7701 37.5194 37.2043 38.8428C38.6337 40.1758 40.3076 41.1775 42.2306 41.8487C44.148 42.521 46.1981 42.8609 48.3905 42.8609C50.2018 42.8609 51.8346 42.7138 53.2889 42.4188C54.7441 42.1237 56.0312 41.7017 57.1456 41.1526C58.2033 40.6442 59.2012 40.0197 60.1209 39.2907C60.986 38.5936 61.7537 37.825 62.4307 36.9809L55.6646 31.6699C54.8148 32.7231 53.9 33.5071 52.9127 34.0093C51.9206 34.5192 50.7308 34.7684 49.3415 34.7684C47.6132 34.7684 46.1885 34.2547 45.0733 33.2216H45.0742ZM12.4514 34.6777C12.0083 34.6109 11.551 34.5202 11.0878 34.3875V19.4678C11.5968 19.2997 12.1 19.1622 12.6089 19.061C13.1494 18.9513 13.6998 18.8982 14.2513 18.9025C16.0216 18.9025 17.4873 19.5336 18.6465 20.795C19.8019 22.0621 20.3815 24.0205 20.3815 26.676C20.3815 29.4174 19.7914 31.4522 18.6112 32.7804C17.431 34.1077 15.8946 34.7684 13.9973 34.7684C13.4072 34.7684 12.8935 34.7379 12.4504 34.6777H12.4514ZM13.7786 10.9017C12.8688 11.041 11.9697 11.2432 11.0878 11.5071V0.0611572H0.0286446V40.3945C1.92118 41.1125 3.98654 41.7122 6.21996 42.1963C8.45816 42.6842 10.9656 42.9287 13.7433 42.9287C16.2708 42.9287 18.6007 42.5878 20.7329 41.9165C22.8584 41.2395 24.7051 40.2169 26.2615 38.8438C27.8237 37.4802 29.0345 35.7405 29.8996 33.6303C30.7637 31.5238 31.1963 29.0364 31.1963 26.1728C31.1963 24.0205 30.8812 22.001 30.2452 20.1037C29.615 18.2064 28.6984 16.5631 27.4981 15.1699C26.2978 13.7806 24.8073 12.6825 23.037 11.8833C21.2667 11.085 19.2672 10.683 17.0347 10.683C15.8087 10.683 14.724 10.7537 13.7786 10.9017Z" fill="black"/>
</g>
<defs>
<clipPath id="clip0_201_33">
<rect width="195.269" height="55" fill="white"/>
</clipPath>
</defs>
</svg>
