<svg width="130" height="50" viewBox="0 0 130 50" fill="none" xmlns="http://www.w3.org/2000/svg">
<g clip-path="url(#clip0_201_66)">
<path fill-rule="evenodd" clip-rule="evenodd" d="M19.9088 30.2872L19.9599 29.8255C20.5301 26.9511 19.1833 25.7191 14.9333 25.7191C10.8386 25.7191 9.02477 26.9511 8.50669 29.8255L8.40349 30.3383C7.83328 33.2138 9.69924 34.4979 13.378 34.4979C17.162 34.4979 19.4418 32.7511 19.9088 30.2872ZM34.3673 28.183L39.2397 0.870213C39.2831 0.626381 39.4109 0.405596 39.6007 0.246505C39.7906 0.0874149 40.0303 0.000154979 40.278 0L45.9631 0C46.1171 0.000151327 46.2692 0.0340012 46.4087 0.0991741C46.5482 0.164347 46.6718 0.259264 46.7707 0.377263C46.8696 0.495262 46.9416 0.633485 46.9814 0.78223C47.0213 0.930975 47.0281 1.08664 47.0014 1.2383L45.4067 10.267C47.3758 8.82979 49.5524 7.80319 53.5439 7.80319C61.3173 7.80319 64.3748 12.9362 63.2865 19.0447L61.4726 29.1064C60.1769 36.4468 55.8758 39.9894 46.2875 39.9894C37.2705 39.9894 33.1237 35.0106 34.3673 28.183ZM53.9067 27.8745L55.3578 19.8149C55.9269 16.6319 54.6833 14.4766 50.4854 14.4766C46.2365 14.4766 44.2663 16.6319 43.696 19.8149L42.245 27.8745C41.6748 31.0574 42.9195 33.2138 47.1684 33.2138C51.3663 33.2138 53.3365 31.0574 53.9067 27.8745ZM95.211 26.0266H75.2588L74.8439 28.4904C74.3769 31.2117 75.2056 33.6755 80.1822 33.6755C84.4833 33.6755 86.5567 32.4436 87.0227 29.8777C87.037 29.805 87.0761 29.7396 87.1334 29.6926C87.1906 29.6456 87.2624 29.6201 87.3365 29.6202H93.5514C93.6799 29.6203 93.8069 29.6481 93.9237 29.7018C94.0405 29.7554 94.1444 29.8337 94.2282 29.9311C94.312 30.0286 94.3738 30.1429 94.4094 30.2665C94.445 30.39 94.4535 30.5197 94.4344 30.6468C93.3461 36.7043 89.0439 39.9894 79.5599 39.9894C70.179 39.9894 66.1375 34.9074 67.329 28.3883L68.9875 18.8915C70.3865 11.4989 74.6886 7.80319 84.2758 7.80319C93.5014 7.80319 97.595 12.7819 96.4035 19.4564L95.212 26.0266H95.211ZM76.4503 19.4043L76.1918 20.9957H88.578L88.8886 19.3532C89.4588 16.0681 88.112 14.117 83.6546 14.117C79.0418 14.117 77.0205 16.2734 76.4503 19.4043ZM113.35 30.8521C117.6 30.8521 119.569 28.6957 120.14 25.616L121.125 19.9181C121.694 16.7862 120.45 14.6819 116.252 14.6819C112.055 14.6819 110.085 16.7862 109.515 19.9181L108.531 25.616C107.961 28.6957 109.152 30.8521 113.35 30.8521ZM116.978 7.80319C125.996 7.80319 130.246 12.8851 129.001 19.8149L125.685 38.3979C124.129 46.8681 119.31 50 110.863 50H109.982C102.467 50 97.595 46.2521 98.3727 40.1436C98.402 39.9853 98.4858 39.8422 98.6096 39.7392C98.7334 39.6362 98.8893 39.5798 99.0503 39.5798H105.888C105.473 41.9404 107.183 43.583 110.811 43.583C115.424 43.583 117.341 41.4787 117.859 38.5521L118.584 34.7021C116.616 36.2425 114.491 37.1149 110.345 37.1149C103.193 37.1149 99.5131 32.2383 100.705 25.5138L101.845 18.9936C103.141 11.6532 107.442 7.80213 116.978 7.80213V7.80319ZM23.3375 4.04681C23.4979 4.04697 23.6562 4.08371 23.8003 4.15422C23.9444 4.22472 24.0705 4.32715 24.1691 4.45371C24.2676 4.58027 24.336 4.72763 24.3691 4.8846C24.4022 5.04157 24.399 5.20401 24.3599 5.35957L23.5737 8.48085C28.329 10.0234 30.6429 14.0532 29.7546 19.0447L27.8897 29.517C26.7407 35.9245 23.0067 38.9053 17.2014 39.766L16.5099 42.5053C16.4525 42.7333 16.3207 42.9356 16.1353 43.0801C15.9499 43.2247 15.7216 43.3032 15.4865 43.3032H9.27796C9.11734 43.3032 8.95884 43.2666 8.81452 43.1961C8.6702 43.1256 8.54388 43.0231 8.44518 42.8964C8.34648 42.7697 8.278 42.6221 8.24497 42.4649C8.21193 42.3077 8.21521 42.1451 8.25456 41.9894L8.80669 39.8032C3.10775 38.8809 -0.0879963 35.3553 0.575834 30.4415L0.680089 29.7223C1.40562 24.1266 5.24073 20.8415 14.2067 20.8415C17.6269 20.8415 20.1663 21.3553 21.3588 22.0223L21.8248 19.3021C22.395 16.3245 21.0482 14.3223 17.212 14.3223C13.9992 14.3223 11.6673 15.4 11.2014 18.1202H3.73754C4.62264 11.8894 8.02371 8.52128 15.3322 7.90638L16.1056 4.84255C16.1634 4.61497 16.2954 4.41314 16.4807 4.26902C16.6661 4.12489 16.8942 4.0467 17.129 4.04681H23.3365H23.3375Z" fill="#874CD1"/>
</g>
<defs>
<clipPath id="clip0_201_66">
<rect width="128.723" height="50" fill="white" transform="translate(0.490723)"/>
</clipPath>
</defs>
</svg>
