<svg width="408" height="408" viewBox="0 0 408 408" fill="none" xmlns="http://www.w3.org/2000/svg">
<g filter="url(#filter0_f_548_600)">
<g clip-path="url(#clip0_548_600)">
<circle cx="10.7797" cy="10.7797" r="6.77966" fill="#008000" fill-opacity="0.15"/>
<circle cx="31.1187" cy="10.7797" r="6.77966" fill="#008000" fill-opacity="0.15"/>
<circle cx="51.4576" cy="10.7797" r="6.77966" fill="#008000" fill-opacity="0.15"/>
<circle cx="71.7966" cy="10.7797" r="6.77966" fill="#008000" fill-opacity="0.15"/>
<circle cx="92.1356" cy="10.7797" r="6.77966" fill="#008000" fill-opacity="0.15"/>
<circle cx="112.475" cy="10.7797" r="6.77966" fill="#008000" fill-opacity="0.15"/>
<circle cx="132.814" cy="10.7797" r="6.77966" fill="#008000" fill-opacity="0.15"/>
<circle cx="153.153" cy="10.7797" r="6.77966" fill="#008000" fill-opacity="0.15"/>
<circle cx="173.492" cy="10.7797" r="6.77966" fill="#008000" fill-opacity="0.15"/>
<circle cx="193.83" cy="10.7797" r="6.77966" fill="#008000" fill-opacity="0.15"/>
<circle cx="214.17" cy="10.7797" r="6.77966" fill="#008000" fill-opacity="0.15"/>
<circle cx="234.508" cy="10.7797" r="6.77966" fill="#008000" fill-opacity="0.15"/>
<circle cx="254.847" cy="10.7797" r="6.77966" fill="#008000" fill-opacity="0.15"/>
<ellipse cx="275.186" cy="10.7797" rx="6.77966" ry="6.77966" fill="#008000" fill-opacity="0.15"/>
<ellipse cx="295.525" cy="10.7797" rx="6.77966" ry="6.77966" fill="#008000" fill-opacity="0.15"/>
<circle cx="315.864" cy="10.7797" r="6.77966" fill="#008000" fill-opacity="0.15"/>
<circle cx="336.203" cy="10.7797" r="6.77966" fill="#008000" fill-opacity="0.15"/>
<circle cx="356.542" cy="10.7797" r="6.77966" fill="#008000" fill-opacity="0.15"/>
<circle cx="376.881" cy="10.7797" r="6.77966" fill="#008000" fill-opacity="0.15"/>
<circle cx="397.22" cy="10.7797" r="6.77966" fill="#008000" fill-opacity="0.15"/>
<circle cx="10.7797" cy="31.1185" r="6.77966" fill="#008000" fill-opacity="0.15"/>
<circle cx="31.1187" cy="31.1185" r="6.77966" fill="#008000" fill-opacity="0.15"/>
<circle cx="51.4576" cy="31.1185" r="6.77966" fill="#008000" fill-opacity="0.15"/>
<circle cx="71.7966" cy="31.1185" r="6.77966" fill="#008000" fill-opacity="0.15"/>
<circle cx="92.1356" cy="31.1185" r="6.77966" fill="#008000" fill-opacity="0.15"/>
<circle cx="112.475" cy="31.1185" r="6.77966" fill="#008000" fill-opacity="0.15"/>
<circle cx="132.814" cy="31.1185" r="6.77966" fill="#008000" fill-opacity="0.15"/>
<circle cx="153.152" cy="31.1185" r="6.77966" fill="#008000" fill-opacity="0.15"/>
<circle cx="173.492" cy="31.1185" r="6.77966" fill="#008000" fill-opacity="0.15"/>
<circle cx="193.83" cy="31.1185" r="6.77966" fill="#008000" fill-opacity="0.15"/>
<circle cx="214.17" cy="31.1185" r="6.77966" fill="#008000" fill-opacity="0.15"/>
<circle cx="234.508" cy="31.1185" r="6.77966" fill="#008000" fill-opacity="0.15"/>
<circle cx="254.848" cy="31.1185" r="6.77966" fill="#008000" fill-opacity="0.15"/>
<ellipse cx="275.186" cy="31.1185" rx="6.77966" ry="6.77966" fill="#008000" fill-opacity="0.15"/>
<ellipse cx="295.525" cy="31.1185" rx="6.77966" ry="6.77966" fill="#008000" fill-opacity="0.15"/>
<circle cx="315.864" cy="31.1185" r="6.77966" fill="#008000" fill-opacity="0.15"/>
<circle cx="336.203" cy="31.1185" r="6.77966" fill="#008000" fill-opacity="0.15"/>
<circle cx="356.542" cy="31.1185" r="6.77966" fill="#008000" fill-opacity="0.15"/>
<circle cx="376.881" cy="31.1185" r="6.77966" fill="#008000" fill-opacity="0.15"/>
<circle cx="397.22" cy="31.1185" r="6.77966" fill="#008000" fill-opacity="0.15"/>
<circle cx="10.7797" cy="51.4576" r="6.77966" fill="#008000" fill-opacity="0.15"/>
<circle cx="10.7797" cy="92.1356" r="6.77966" fill="#008000" fill-opacity="0.15"/>
<circle cx="10.7797" cy="132.814" r="6.77966" fill="#008000" fill-opacity="0.15"/>
<circle cx="10.7797" cy="173.492" r="6.77966" fill="#008000" fill-opacity="0.15"/>
<circle cx="10.7797" cy="214.17" r="6.77966" fill="#008000" fill-opacity="0.15"/>
<circle cx="10.7797" cy="254.848" r="6.77966" fill="#008000" fill-opacity="0.15"/>
<ellipse cx="10.7797" cy="295.526" rx="6.77966" ry="6.77966" fill="#008000" fill-opacity="0.15"/>
<circle cx="10.7797" cy="336.203" r="6.77966" fill="#008000" fill-opacity="0.15"/>
<circle cx="10.7797" cy="376.881" r="6.77966" fill="#008000" fill-opacity="0.15"/>
<circle cx="31.1187" cy="51.4576" r="6.77966" fill="#008000" fill-opacity="0.15"/>
<circle cx="31.1187" cy="92.1356" r="6.77966" fill="#008000" fill-opacity="0.15"/>
<circle cx="31.1187" cy="132.814" r="6.77966" fill="#008000" fill-opacity="0.15"/>
<circle cx="31.1187" cy="173.492" r="6.77966" fill="#008000" fill-opacity="0.15"/>
<circle cx="31.1187" cy="214.17" r="6.77966" fill="#008000" fill-opacity="0.15"/>
<circle cx="31.1187" cy="254.848" r="6.77966" fill="#008000" fill-opacity="0.15"/>
<ellipse cx="31.1187" cy="295.526" rx="6.77966" ry="6.77966" fill="#008000" fill-opacity="0.15"/>
<circle cx="31.1187" cy="336.203" r="6.77966" fill="#008000" fill-opacity="0.15"/>
<circle cx="31.1187" cy="376.881" r="6.77966" fill="#008000" fill-opacity="0.15"/>
<circle cx="51.4576" cy="51.4576" r="6.77966" fill="#008000" fill-opacity="0.15"/>
<circle cx="51.4576" cy="92.1356" r="6.77966" fill="#008000" fill-opacity="0.15"/>
<circle cx="51.4576" cy="132.814" r="6.77966" fill="#008000" fill-opacity="0.15"/>
<circle cx="51.4576" cy="173.492" r="6.77966" fill="#008000" fill-opacity="0.15"/>
<circle cx="51.4576" cy="214.17" r="6.77966" fill="#008000" fill-opacity="0.15"/>
<circle cx="51.4576" cy="254.848" r="6.77966" fill="#008000" fill-opacity="0.15"/>
<ellipse cx="51.4576" cy="295.526" rx="6.77966" ry="6.77966" fill="#008000" fill-opacity="0.15"/>
<circle cx="51.4576" cy="336.203" r="6.77966" fill="#008000" fill-opacity="0.15"/>
<circle cx="51.4576" cy="376.881" r="6.77966" fill="#008000" fill-opacity="0.15"/>
<circle cx="71.7966" cy="51.4576" r="6.77966" fill="#008000" fill-opacity="0.15"/>
<circle cx="71.7966" cy="92.1356" r="6.77966" fill="#008000" fill-opacity="0.15"/>
<circle cx="71.7966" cy="132.814" r="6.77966" fill="#008000" fill-opacity="0.15"/>
<circle cx="71.7966" cy="173.492" r="6.77966" fill="#008000" fill-opacity="0.15"/>
<circle cx="71.7966" cy="214.17" r="6.77966" fill="#008000" fill-opacity="0.15"/>
<circle cx="71.7966" cy="254.848" r="6.77966" fill="#008000" fill-opacity="0.15"/>
<ellipse cx="71.7966" cy="295.526" rx="6.77966" ry="6.77966" fill="#008000" fill-opacity="0.15"/>
<circle cx="71.7966" cy="336.203" r="6.77966" fill="#008000" fill-opacity="0.15"/>
<circle cx="71.7966" cy="376.881" r="6.77966" fill="#008000" fill-opacity="0.15"/>
<circle cx="92.1356" cy="51.4576" r="6.77966" fill="#008000" fill-opacity="0.15"/>
<circle cx="92.1356" cy="92.1356" r="6.77966" fill="#008000" fill-opacity="0.15"/>
<circle cx="92.1356" cy="132.814" r="6.77966" fill="#008000" fill-opacity="0.15"/>
<circle cx="92.1356" cy="173.492" r="6.77966" fill="#008000" fill-opacity="0.15"/>
<circle cx="92.1356" cy="214.17" r="6.77966" fill="#008000" fill-opacity="0.15"/>
<circle cx="92.1356" cy="254.848" r="6.77966" fill="#008000" fill-opacity="0.15"/>
<ellipse cx="92.1356" cy="295.526" rx="6.77966" ry="6.77966" fill="#008000" fill-opacity="0.15"/>
<circle cx="92.1356" cy="336.203" r="6.77966" fill="#008000" fill-opacity="0.15"/>
<circle cx="92.1356" cy="376.881" r="6.77966" fill="#008000" fill-opacity="0.15"/>
<circle cx="112.475" cy="51.4576" r="6.77966" fill="#008000" fill-opacity="0.15"/>
<circle cx="112.475" cy="92.1356" r="6.77966" fill="#008000" fill-opacity="0.15"/>
<circle cx="112.475" cy="132.814" r="6.77966" fill="#008000" fill-opacity="0.15"/>
<circle cx="112.475" cy="173.492" r="6.77966" fill="#008000" fill-opacity="0.15"/>
<circle cx="112.475" cy="214.17" r="6.77966" fill="#008000" fill-opacity="0.15"/>
<circle cx="112.475" cy="254.848" r="6.77966" fill="#008000" fill-opacity="0.15"/>
<ellipse cx="112.475" cy="295.526" rx="6.77966" ry="6.77966" fill="#008000" fill-opacity="0.15"/>
<circle cx="112.475" cy="336.203" r="6.77966" fill="#008000" fill-opacity="0.15"/>
<circle cx="112.475" cy="376.881" r="6.77966" fill="#008000" fill-opacity="0.15"/>
<circle cx="132.814" cy="51.4576" r="6.77966" fill="#008000" fill-opacity="0.15"/>
<circle cx="132.814" cy="92.1356" r="6.77966" fill="#008000" fill-opacity="0.15"/>
<circle cx="132.814" cy="132.814" r="6.77966" fill="#008000" fill-opacity="0.15"/>
<circle cx="132.814" cy="173.492" r="6.77966" fill="#008000" fill-opacity="0.15"/>
<circle cx="132.814" cy="214.17" r="6.77966" fill="#008000" fill-opacity="0.15"/>
<circle cx="132.814" cy="254.848" r="6.77966" fill="#008000" fill-opacity="0.15"/>
<ellipse cx="132.814" cy="295.526" rx="6.77966" ry="6.77966" fill="#008000" fill-opacity="0.15"/>
<circle cx="132.814" cy="336.203" r="6.77966" fill="#008000" fill-opacity="0.15"/>
<circle cx="132.814" cy="376.881" r="6.77966" fill="#008000" fill-opacity="0.15"/>
<circle cx="153.152" cy="51.4576" r="6.77966" fill="#008000" fill-opacity="0.15"/>
<circle cx="153.152" cy="92.1356" r="6.77966" fill="#008000" fill-opacity="0.15"/>
<circle cx="153.152" cy="132.814" r="6.77966" fill="#008000" fill-opacity="0.15"/>
<circle cx="153.152" cy="173.492" r="6.77966" fill="#008000" fill-opacity="0.15"/>
<circle cx="153.152" cy="214.17" r="6.77966" fill="#008000" fill-opacity="0.15"/>
<circle cx="153.152" cy="254.848" r="6.77966" fill="#008000" fill-opacity="0.15"/>
<ellipse cx="153.152" cy="295.526" rx="6.77966" ry="6.77966" fill="#008000" fill-opacity="0.15"/>
<circle cx="153.152" cy="336.203" r="6.77966" fill="#008000" fill-opacity="0.15"/>
<circle cx="153.152" cy="376.881" r="6.77966" fill="#008000" fill-opacity="0.15"/>
<circle cx="173.492" cy="51.4576" r="6.77966" fill="#008000" fill-opacity="0.15"/>
<circle cx="173.492" cy="92.1356" r="6.77966" fill="#008000" fill-opacity="0.15"/>
<circle cx="173.492" cy="132.814" r="6.77966" fill="#008000" fill-opacity="0.15"/>
<circle cx="173.492" cy="173.492" r="6.77966" fill="#008000" fill-opacity="0.15"/>
<circle cx="173.492" cy="214.17" r="6.77966" fill="#008000" fill-opacity="0.15"/>
<circle cx="173.492" cy="254.848" r="6.77966" fill="#008000" fill-opacity="0.15"/>
<ellipse cx="173.492" cy="295.526" rx="6.77966" ry="6.77966" fill="#008000" fill-opacity="0.15"/>
<circle cx="173.492" cy="336.203" r="6.77966" fill="#008000" fill-opacity="0.15"/>
<circle cx="173.492" cy="376.881" r="6.77966" fill="#008000" fill-opacity="0.15"/>
<circle cx="193.83" cy="51.4576" r="6.77966" fill="#008000" fill-opacity="0.15"/>
<circle cx="193.83" cy="92.1356" r="6.77966" fill="#008000" fill-opacity="0.15"/>
<circle cx="193.83" cy="132.814" r="6.77966" fill="#008000" fill-opacity="0.15"/>
<circle cx="193.83" cy="173.492" r="6.77966" fill="#008000" fill-opacity="0.15"/>
<circle cx="193.83" cy="214.17" r="6.77966" fill="#008000" fill-opacity="0.15"/>
<circle cx="193.83" cy="254.848" r="6.77966" fill="#008000" fill-opacity="0.15"/>
<ellipse cx="193.83" cy="295.526" rx="6.77966" ry="6.77966" fill="#008000" fill-opacity="0.15"/>
<circle cx="193.83" cy="336.203" r="6.77966" fill="#008000" fill-opacity="0.15"/>
<circle cx="193.83" cy="376.881" r="6.77966" fill="#008000" fill-opacity="0.15"/>
<circle cx="214.17" cy="51.4576" r="6.77966" fill="#008000" fill-opacity="0.15"/>
<circle cx="214.17" cy="92.1356" r="6.77966" fill="#008000" fill-opacity="0.15"/>
<circle cx="214.17" cy="132.814" r="6.77966" fill="#008000" fill-opacity="0.15"/>
<circle cx="214.17" cy="173.492" r="6.77966" fill="#008000" fill-opacity="0.15"/>
<circle cx="214.17" cy="214.17" r="6.77966" fill="#008000" fill-opacity="0.15"/>
<circle cx="214.17" cy="254.848" r="6.77966" fill="#008000" fill-opacity="0.15"/>
<ellipse cx="214.17" cy="295.526" rx="6.77966" ry="6.77966" fill="#008000" fill-opacity="0.15"/>
<circle cx="214.17" cy="336.203" r="6.77966" fill="#008000" fill-opacity="0.15"/>
<circle cx="214.17" cy="376.881" r="6.77966" fill="#008000" fill-opacity="0.15"/>
<circle cx="234.508" cy="51.4576" r="6.77966" fill="#008000" fill-opacity="0.15"/>
<circle cx="234.508" cy="92.1356" r="6.77966" fill="#008000" fill-opacity="0.15"/>
<circle cx="234.508" cy="132.814" r="6.77966" fill="#008000" fill-opacity="0.15"/>
<circle cx="234.508" cy="173.492" r="6.77966" fill="#008000" fill-opacity="0.15"/>
<circle cx="234.508" cy="214.17" r="6.77966" fill="#008000" fill-opacity="0.15"/>
<circle cx="234.508" cy="254.848" r="6.77966" fill="#008000" fill-opacity="0.15"/>
<ellipse cx="234.508" cy="295.526" rx="6.77966" ry="6.77966" fill="#008000" fill-opacity="0.15"/>
<circle cx="234.508" cy="336.203" r="6.77966" fill="#008000" fill-opacity="0.15"/>
<circle cx="234.508" cy="376.881" r="6.77966" fill="#008000" fill-opacity="0.15"/>
<circle cx="254.848" cy="51.4576" r="6.77966" fill="#008000" fill-opacity="0.15"/>
<circle cx="254.848" cy="92.1356" r="6.77966" fill="#008000" fill-opacity="0.15"/>
<circle cx="254.848" cy="132.814" r="6.77966" fill="#008000" fill-opacity="0.15"/>
<circle cx="254.848" cy="173.492" r="6.77966" fill="#008000" fill-opacity="0.15"/>
<circle cx="254.848" cy="214.17" r="6.77966" fill="#008000" fill-opacity="0.15"/>
<circle cx="254.848" cy="254.848" r="6.77966" fill="#008000" fill-opacity="0.15"/>
<ellipse cx="254.848" cy="295.526" rx="6.77966" ry="6.77966" fill="#008000" fill-opacity="0.15"/>
<circle cx="254.848" cy="336.203" r="6.77966" fill="#008000" fill-opacity="0.15"/>
<circle cx="254.848" cy="376.881" r="6.77966" fill="#008000" fill-opacity="0.15"/>
<ellipse cx="275.186" cy="51.4576" rx="6.77966" ry="6.77966" fill="#008000" fill-opacity="0.15"/>
<ellipse cx="275.186" cy="92.1356" rx="6.77966" ry="6.77966" fill="#008000" fill-opacity="0.15"/>
<ellipse cx="275.186" cy="132.814" rx="6.77966" ry="6.77966" fill="#008000" fill-opacity="0.15"/>
<ellipse cx="275.186" cy="173.492" rx="6.77966" ry="6.77966" fill="#008000" fill-opacity="0.15"/>
<ellipse cx="275.186" cy="214.17" rx="6.77966" ry="6.77966" fill="#008000" fill-opacity="0.15"/>
<ellipse cx="275.186" cy="254.848" rx="6.77966" ry="6.77966" fill="#008000" fill-opacity="0.15"/>
<circle cx="275.186" cy="295.526" r="6.77966" fill="#008000" fill-opacity="0.15"/>
<ellipse cx="275.186" cy="336.203" rx="6.77966" ry="6.77966" fill="#008000" fill-opacity="0.15"/>
<ellipse cx="275.186" cy="376.881" rx="6.77966" ry="6.77966" fill="#008000" fill-opacity="0.15"/>
<ellipse cx="295.525" cy="51.4576" rx="6.77966" ry="6.77966" fill="#008000" fill-opacity="0.15"/>
<ellipse cx="295.525" cy="92.1356" rx="6.77966" ry="6.77966" fill="#008000" fill-opacity="0.15"/>
<ellipse cx="295.525" cy="132.814" rx="6.77966" ry="6.77966" fill="#008000" fill-opacity="0.15"/>
<ellipse cx="295.525" cy="173.492" rx="6.77966" ry="6.77966" fill="#008000" fill-opacity="0.15"/>
<ellipse cx="295.525" cy="214.17" rx="6.77966" ry="6.77966" fill="#008000" fill-opacity="0.15"/>
<ellipse cx="295.525" cy="254.848" rx="6.77966" ry="6.77966" fill="#008000" fill-opacity="0.15"/>
<circle cx="295.525" cy="295.526" r="6.77966" fill="#008000" fill-opacity="0.15"/>
<ellipse cx="295.525" cy="336.203" rx="6.77966" ry="6.77966" fill="#008000" fill-opacity="0.15"/>
<ellipse cx="295.525" cy="376.881" rx="6.77966" ry="6.77966" fill="#008000" fill-opacity="0.15"/>
<circle cx="315.864" cy="51.4576" r="6.77966" fill="#008000" fill-opacity="0.15"/>
<circle cx="315.864" cy="92.1356" r="6.77966" fill="#008000" fill-opacity="0.15"/>
<circle cx="315.864" cy="132.814" r="6.77966" fill="#008000" fill-opacity="0.15"/>
<circle cx="315.864" cy="173.492" r="6.77966" fill="#008000" fill-opacity="0.15"/>
<circle cx="315.864" cy="214.17" r="6.77966" fill="#008000" fill-opacity="0.15"/>
<circle cx="315.864" cy="254.848" r="6.77966" fill="#008000" fill-opacity="0.15"/>
<ellipse cx="315.864" cy="295.526" rx="6.77966" ry="6.77966" fill="#008000" fill-opacity="0.15"/>
<circle cx="315.864" cy="336.203" r="6.77966" fill="#008000" fill-opacity="0.15"/>
<circle cx="315.864" cy="376.881" r="6.77966" fill="#008000" fill-opacity="0.15"/>
<circle cx="336.203" cy="51.4576" r="6.77966" fill="#008000" fill-opacity="0.15"/>
<circle cx="336.203" cy="92.1356" r="6.77966" fill="#008000" fill-opacity="0.15"/>
<circle cx="336.203" cy="132.814" r="6.77966" fill="#008000" fill-opacity="0.15"/>
<circle cx="336.203" cy="173.492" r="6.77966" fill="#008000" fill-opacity="0.15"/>
<circle cx="336.203" cy="214.17" r="6.77966" fill="#008000" fill-opacity="0.15"/>
<circle cx="336.203" cy="254.848" r="6.77966" fill="#008000" fill-opacity="0.15"/>
<ellipse cx="336.203" cy="295.526" rx="6.77966" ry="6.77966" fill="#008000" fill-opacity="0.15"/>
<circle cx="336.203" cy="336.203" r="6.77966" fill="#008000" fill-opacity="0.15"/>
<circle cx="336.203" cy="376.881" r="6.77966" fill="#008000" fill-opacity="0.15"/>
<circle cx="356.542" cy="51.4576" r="6.77966" fill="#008000" fill-opacity="0.15"/>
<circle cx="356.542" cy="92.1356" r="6.77966" fill="#008000" fill-opacity="0.15"/>
<circle cx="356.542" cy="132.814" r="6.77966" fill="#008000" fill-opacity="0.15"/>
<circle cx="356.542" cy="173.492" r="6.77966" fill="#008000" fill-opacity="0.15"/>
<circle cx="356.542" cy="214.17" r="6.77966" fill="#008000" fill-opacity="0.15"/>
<circle cx="356.542" cy="254.848" r="6.77966" fill="#008000" fill-opacity="0.15"/>
<ellipse cx="356.542" cy="295.526" rx="6.77966" ry="6.77966" fill="#008000" fill-opacity="0.15"/>
<circle cx="356.542" cy="336.203" r="6.77966" fill="#008000" fill-opacity="0.15"/>
<circle cx="356.542" cy="376.881" r="6.77966" fill="#008000" fill-opacity="0.15"/>
<circle cx="376.881" cy="51.4576" r="6.77966" fill="#008000" fill-opacity="0.15"/>
<circle cx="376.881" cy="92.1356" r="6.77966" fill="#008000" fill-opacity="0.15"/>
<circle cx="376.881" cy="132.814" r="6.77966" fill="#008000" fill-opacity="0.15"/>
<circle cx="376.881" cy="173.492" r="6.77966" fill="#008000" fill-opacity="0.15"/>
<circle cx="376.881" cy="214.17" r="6.77966" fill="#008000" fill-opacity="0.15"/>
<circle cx="376.881" cy="254.848" r="6.77966" fill="#008000" fill-opacity="0.15"/>
<ellipse cx="376.881" cy="295.526" rx="6.77966" ry="6.77966" fill="#008000" fill-opacity="0.15"/>
<circle cx="376.881" cy="336.203" r="6.77966" fill="#008000" fill-opacity="0.15"/>
<circle cx="376.881" cy="376.881" r="6.77966" fill="#008000" fill-opacity="0.15"/>
<circle cx="397.22" cy="51.4576" r="6.77966" fill="#008000" fill-opacity="0.15"/>
<circle cx="397.22" cy="92.1356" r="6.77966" fill="#008000" fill-opacity="0.15"/>
<circle cx="397.22" cy="132.814" r="6.77966" fill="#008000" fill-opacity="0.15"/>
<circle cx="397.22" cy="173.492" r="6.77966" fill="#008000" fill-opacity="0.15"/>
<circle cx="397.22" cy="214.17" r="6.77966" fill="#008000" fill-opacity="0.15"/>
<circle cx="397.22" cy="254.848" r="6.77966" fill="#008000" fill-opacity="0.15"/>
<ellipse cx="397.22" cy="295.526" rx="6.77966" ry="6.77966" fill="#008000" fill-opacity="0.15"/>
<circle cx="397.22" cy="336.203" r="6.77966" fill="#008000" fill-opacity="0.15"/>
<circle cx="397.22" cy="376.881" r="6.77966" fill="#008000" fill-opacity="0.15"/>
<circle cx="10.7797" cy="71.7965" r="6.77966" fill="#008000" fill-opacity="0.15"/>
<circle cx="10.7797" cy="112.474" r="6.77966" fill="#008000" fill-opacity="0.15"/>
<circle cx="10.7797" cy="153.152" r="6.77966" fill="#008000" fill-opacity="0.15"/>
<circle cx="10.7797" cy="193.83" r="6.77966" fill="#008000" fill-opacity="0.15"/>
<circle cx="10.7797" cy="234.508" r="6.77966" fill="#008000" fill-opacity="0.15"/>
<ellipse cx="10.7797" cy="275.186" rx="6.77966" ry="6.77966" fill="#008000" fill-opacity="0.15"/>
<circle cx="10.7797" cy="315.865" r="6.77966" fill="#008000" fill-opacity="0.15"/>
<circle cx="10.7797" cy="356.542" r="6.77966" fill="#008000" fill-opacity="0.15"/>
<circle cx="10.7797" cy="397.22" r="6.77966" fill="#008000" fill-opacity="0.15"/>
<circle cx="31.1187" cy="71.7965" r="6.77966" fill="#008000" fill-opacity="0.15"/>
<circle cx="31.1187" cy="112.474" r="6.77966" fill="#008000" fill-opacity="0.15"/>
<circle cx="31.1187" cy="153.152" r="6.77966" fill="#008000" fill-opacity="0.15"/>
<circle cx="31.1187" cy="193.83" r="6.77966" fill="#008000" fill-opacity="0.15"/>
<circle cx="31.1187" cy="234.508" r="6.77966" fill="#008000" fill-opacity="0.15"/>
<ellipse cx="31.1187" cy="275.186" rx="6.77966" ry="6.77966" fill="#008000" fill-opacity="0.15"/>
<circle cx="31.1187" cy="315.865" r="6.77966" fill="#008000" fill-opacity="0.15"/>
<circle cx="31.1187" cy="356.542" r="6.77966" fill="#008000" fill-opacity="0.15"/>
<circle cx="31.1187" cy="397.22" r="6.77966" fill="#008000" fill-opacity="0.15"/>
<circle cx="51.4576" cy="71.7965" r="6.77966" fill="#008000" fill-opacity="0.15"/>
<circle cx="51.4576" cy="112.474" r="6.77966" fill="#008000" fill-opacity="0.15"/>
<circle cx="51.4576" cy="153.152" r="6.77966" fill="#008000" fill-opacity="0.15"/>
<circle cx="51.4576" cy="193.83" r="6.77966" fill="#008000" fill-opacity="0.15"/>
<circle cx="51.4576" cy="234.508" r="6.77966" fill="#008000" fill-opacity="0.15"/>
<ellipse cx="51.4576" cy="275.186" rx="6.77966" ry="6.77966" fill="#008000" fill-opacity="0.15"/>
<circle cx="51.4576" cy="315.865" r="6.77966" fill="#008000" fill-opacity="0.15"/>
<circle cx="51.4576" cy="356.542" r="6.77966" fill="#008000" fill-opacity="0.15"/>
<circle cx="51.4576" cy="397.22" r="6.77966" fill="#008000" fill-opacity="0.15"/>
<circle cx="71.7966" cy="71.7965" r="6.77966" fill="#008000" fill-opacity="0.15"/>
<circle cx="71.7966" cy="112.474" r="6.77966" fill="#008000" fill-opacity="0.15"/>
<circle cx="71.7966" cy="153.152" r="6.77966" fill="#008000" fill-opacity="0.15"/>
<circle cx="71.7966" cy="193.83" r="6.77966" fill="#008000" fill-opacity="0.15"/>
<circle cx="71.7966" cy="234.508" r="6.77966" fill="#008000" fill-opacity="0.15"/>
<ellipse cx="71.7966" cy="275.186" rx="6.77966" ry="6.77966" fill="#008000" fill-opacity="0.15"/>
<circle cx="71.7966" cy="315.865" r="6.77966" fill="#008000" fill-opacity="0.15"/>
<circle cx="71.7966" cy="356.542" r="6.77966" fill="#008000" fill-opacity="0.15"/>
<circle cx="71.7966" cy="397.22" r="6.77966" fill="#008000" fill-opacity="0.15"/>
<circle cx="92.1356" cy="71.7965" r="6.77966" fill="#008000" fill-opacity="0.15"/>
<circle cx="92.1356" cy="112.474" r="6.77966" fill="#008000" fill-opacity="0.15"/>
<circle cx="92.1356" cy="153.152" r="6.77966" fill="#008000" fill-opacity="0.15"/>
<circle cx="92.1356" cy="193.83" r="6.77966" fill="#008000" fill-opacity="0.15"/>
<circle cx="92.1356" cy="234.508" r="6.77966" fill="#008000" fill-opacity="0.15"/>
<ellipse cx="92.1356" cy="275.186" rx="6.77966" ry="6.77966" fill="#008000" fill-opacity="0.15"/>
<circle cx="92.1356" cy="315.865" r="6.77966" fill="#008000" fill-opacity="0.15"/>
<circle cx="92.1356" cy="356.542" r="6.77966" fill="#008000" fill-opacity="0.15"/>
<circle cx="92.1356" cy="397.22" r="6.77966" fill="#008000" fill-opacity="0.15"/>
<circle cx="112.475" cy="71.7965" r="6.77966" fill="#008000" fill-opacity="0.15"/>
<circle cx="112.475" cy="112.474" r="6.77966" fill="#008000" fill-opacity="0.15"/>
<circle cx="112.475" cy="153.152" r="6.77966" fill="#008000" fill-opacity="0.15"/>
<circle cx="112.475" cy="193.83" r="6.77966" fill="#008000" fill-opacity="0.15"/>
<circle cx="112.475" cy="234.508" r="6.77966" fill="#008000" fill-opacity="0.15"/>
<ellipse cx="112.475" cy="275.186" rx="6.77966" ry="6.77966" fill="#008000" fill-opacity="0.15"/>
<circle cx="112.475" cy="315.865" r="6.77966" fill="#008000" fill-opacity="0.15"/>
<circle cx="112.475" cy="356.542" r="6.77966" fill="#008000" fill-opacity="0.15"/>
<circle cx="112.475" cy="397.22" r="6.77966" fill="#008000" fill-opacity="0.15"/>
<circle cx="132.814" cy="71.7965" r="6.77966" fill="#008000" fill-opacity="0.15"/>
<circle cx="132.814" cy="112.474" r="6.77966" fill="#008000" fill-opacity="0.15"/>
<circle cx="132.814" cy="153.152" r="6.77966" fill="#008000" fill-opacity="0.15"/>
<circle cx="132.814" cy="193.83" r="6.77966" fill="#008000" fill-opacity="0.15"/>
<circle cx="132.814" cy="234.508" r="6.77966" fill="#008000" fill-opacity="0.15"/>
<ellipse cx="132.814" cy="275.186" rx="6.77966" ry="6.77966" fill="#008000" fill-opacity="0.15"/>
<circle cx="132.814" cy="315.865" r="6.77966" fill="#008000" fill-opacity="0.15"/>
<circle cx="132.814" cy="356.542" r="6.77966" fill="#008000" fill-opacity="0.15"/>
<circle cx="132.814" cy="397.22" r="6.77966" fill="#008000" fill-opacity="0.15"/>
<circle cx="153.152" cy="71.7965" r="6.77966" fill="#008000" fill-opacity="0.15"/>
<circle cx="153.152" cy="112.474" r="6.77966" fill="#008000" fill-opacity="0.15"/>
<circle cx="153.152" cy="153.152" r="6.77966" fill="#008000" fill-opacity="0.15"/>
<circle cx="153.152" cy="193.83" r="6.77966" fill="#008000" fill-opacity="0.15"/>
<circle cx="153.152" cy="234.508" r="6.77966" fill="#008000" fill-opacity="0.15"/>
<ellipse cx="153.152" cy="275.186" rx="6.77966" ry="6.77966" fill="#008000" fill-opacity="0.15"/>
<circle cx="153.152" cy="315.865" r="6.77966" fill="#008000" fill-opacity="0.15"/>
<circle cx="153.152" cy="356.542" r="6.77966" fill="#008000" fill-opacity="0.15"/>
<circle cx="153.152" cy="397.22" r="6.77966" fill="#008000" fill-opacity="0.15"/>
<circle cx="173.492" cy="71.7965" r="6.77966" fill="#008000" fill-opacity="0.15"/>
<circle cx="173.492" cy="112.474" r="6.77966" fill="#008000" fill-opacity="0.15"/>
<circle cx="173.492" cy="153.152" r="6.77966" fill="#008000" fill-opacity="0.15"/>
<circle cx="173.492" cy="193.83" r="6.77966" fill="#008000" fill-opacity="0.15"/>
<circle cx="173.492" cy="234.508" r="6.77966" fill="#008000" fill-opacity="0.15"/>
<ellipse cx="173.492" cy="275.186" rx="6.77966" ry="6.77966" fill="#008000" fill-opacity="0.15"/>
<circle cx="173.492" cy="315.865" r="6.77966" fill="#008000" fill-opacity="0.15"/>
<circle cx="173.492" cy="356.542" r="6.77966" fill="#008000" fill-opacity="0.15"/>
<circle cx="173.492" cy="397.22" r="6.77966" fill="#008000" fill-opacity="0.15"/>
<circle cx="193.83" cy="71.7965" r="6.77966" fill="#008000" fill-opacity="0.15"/>
<circle cx="193.83" cy="112.474" r="6.77966" fill="#008000" fill-opacity="0.15"/>
<circle cx="193.83" cy="153.152" r="6.77966" fill="#008000" fill-opacity="0.15"/>
<circle cx="193.83" cy="193.83" r="6.77966" fill="#008000" fill-opacity="0.15"/>
<circle cx="193.83" cy="234.508" r="6.77966" fill="#008000" fill-opacity="0.15"/>
<ellipse cx="193.83" cy="275.186" rx="6.77966" ry="6.77966" fill="#008000" fill-opacity="0.15"/>
<circle cx="193.83" cy="315.865" r="6.77966" fill="#008000" fill-opacity="0.15"/>
<circle cx="193.83" cy="356.542" r="6.77966" fill="#008000" fill-opacity="0.15"/>
<circle cx="193.83" cy="397.22" r="6.77966" fill="#008000" fill-opacity="0.15"/>
<circle cx="214.17" cy="71.7965" r="6.77966" fill="#008000" fill-opacity="0.15"/>
<circle cx="214.17" cy="112.474" r="6.77966" fill="#008000" fill-opacity="0.15"/>
<circle cx="214.17" cy="153.152" r="6.77966" fill="#008000" fill-opacity="0.15"/>
<circle cx="214.17" cy="193.83" r="6.77966" fill="#008000" fill-opacity="0.15"/>
<circle cx="214.17" cy="234.508" r="6.77966" fill="#008000" fill-opacity="0.15"/>
<ellipse cx="214.17" cy="275.186" rx="6.77966" ry="6.77966" fill="#008000" fill-opacity="0.15"/>
<circle cx="214.17" cy="315.865" r="6.77966" fill="#008000" fill-opacity="0.15"/>
<circle cx="214.17" cy="356.542" r="6.77966" fill="#008000" fill-opacity="0.15"/>
<circle cx="214.17" cy="397.22" r="6.77966" fill="#008000" fill-opacity="0.15"/>
<circle cx="234.508" cy="71.7965" r="6.77966" fill="#008000" fill-opacity="0.15"/>
<circle cx="234.508" cy="112.474" r="6.77966" fill="#008000" fill-opacity="0.15"/>
<circle cx="234.508" cy="153.152" r="6.77966" fill="#008000" fill-opacity="0.15"/>
<circle cx="234.508" cy="193.83" r="6.77966" fill="#008000" fill-opacity="0.15"/>
<circle cx="234.508" cy="234.508" r="6.77966" fill="#008000" fill-opacity="0.15"/>
<ellipse cx="234.508" cy="275.186" rx="6.77966" ry="6.77966" fill="#008000" fill-opacity="0.15"/>
<circle cx="234.508" cy="315.865" r="6.77966" fill="#008000" fill-opacity="0.15"/>
<circle cx="234.508" cy="356.542" r="6.77966" fill="#008000" fill-opacity="0.15"/>
<circle cx="234.508" cy="397.22" r="6.77966" fill="#008000" fill-opacity="0.15"/>
<circle cx="254.848" cy="71.7965" r="6.77966" fill="#008000" fill-opacity="0.15"/>
<circle cx="254.848" cy="112.474" r="6.77966" fill="#008000" fill-opacity="0.15"/>
<circle cx="254.848" cy="153.152" r="6.77966" fill="#008000" fill-opacity="0.15"/>
<circle cx="254.848" cy="193.83" r="6.77966" fill="#008000" fill-opacity="0.15"/>
<circle cx="254.848" cy="234.508" r="6.77966" fill="#008000" fill-opacity="0.15"/>
<ellipse cx="254.848" cy="275.186" rx="6.77966" ry="6.77966" fill="#008000" fill-opacity="0.15"/>
<circle cx="254.848" cy="315.865" r="6.77966" fill="#008000" fill-opacity="0.15"/>
<circle cx="254.848" cy="356.542" r="6.77966" fill="#008000" fill-opacity="0.15"/>
<circle cx="254.848" cy="397.22" r="6.77966" fill="#008000" fill-opacity="0.15"/>
<ellipse cx="275.186" cy="71.7965" rx="6.77966" ry="6.77966" fill="#008000" fill-opacity="0.15"/>
<ellipse cx="275.186" cy="112.474" rx="6.77966" ry="6.77966" fill="#008000" fill-opacity="0.15"/>
<ellipse cx="275.186" cy="153.152" rx="6.77966" ry="6.77966" fill="#008000" fill-opacity="0.15"/>
<ellipse cx="275.186" cy="193.83" rx="6.77966" ry="6.77966" fill="#008000" fill-opacity="0.15"/>
<ellipse cx="275.186" cy="234.508" rx="6.77966" ry="6.77966" fill="#008000" fill-opacity="0.15"/>
<circle cx="275.186" cy="275.186" r="6.77966" fill="#008000" fill-opacity="0.15"/>
<ellipse cx="275.186" cy="315.865" rx="6.77966" ry="6.77966" fill="#008000" fill-opacity="0.15"/>
<ellipse cx="275.186" cy="356.542" rx="6.77966" ry="6.77966" fill="#008000" fill-opacity="0.15"/>
<ellipse cx="275.186" cy="397.22" rx="6.77966" ry="6.77966" fill="#008000" fill-opacity="0.15"/>
<ellipse cx="295.525" cy="71.7965" rx="6.77966" ry="6.77966" fill="#008000" fill-opacity="0.15"/>
<ellipse cx="295.525" cy="112.474" rx="6.77966" ry="6.77966" fill="#008000" fill-opacity="0.15"/>
<ellipse cx="295.525" cy="153.152" rx="6.77966" ry="6.77966" fill="#008000" fill-opacity="0.15"/>
<ellipse cx="295.525" cy="193.83" rx="6.77966" ry="6.77966" fill="#008000" fill-opacity="0.15"/>
<ellipse cx="295.525" cy="234.508" rx="6.77966" ry="6.77966" fill="#008000" fill-opacity="0.15"/>
<circle cx="295.525" cy="275.186" r="6.77966" fill="#008000" fill-opacity="0.15"/>
<ellipse cx="295.525" cy="315.865" rx="6.77966" ry="6.77966" fill="#008000" fill-opacity="0.15"/>
<ellipse cx="295.525" cy="356.542" rx="6.77966" ry="6.77966" fill="#008000" fill-opacity="0.15"/>
<ellipse cx="295.525" cy="397.22" rx="6.77966" ry="6.77966" fill="#008000" fill-opacity="0.15"/>
<circle cx="315.864" cy="71.7965" r="6.77966" fill="#008000" fill-opacity="0.15"/>
<circle cx="315.864" cy="112.474" r="6.77966" fill="#008000" fill-opacity="0.15"/>
<circle cx="315.864" cy="153.152" r="6.77966" fill="#008000" fill-opacity="0.15"/>
<circle cx="315.864" cy="193.83" r="6.77966" fill="#008000" fill-opacity="0.15"/>
<circle cx="315.864" cy="234.508" r="6.77966" fill="#008000" fill-opacity="0.15"/>
<ellipse cx="315.864" cy="275.186" rx="6.77966" ry="6.77966" fill="#008000" fill-opacity="0.15"/>
<circle cx="315.864" cy="315.865" r="6.77966" fill="#008000" fill-opacity="0.15"/>
<circle cx="315.864" cy="356.542" r="6.77966" fill="#008000" fill-opacity="0.15"/>
<circle cx="315.864" cy="397.22" r="6.77966" fill="#008000" fill-opacity="0.15"/>
<circle cx="336.203" cy="71.7965" r="6.77966" fill="#008000" fill-opacity="0.15"/>
<circle cx="336.203" cy="112.474" r="6.77966" fill="#008000" fill-opacity="0.15"/>
<circle cx="336.203" cy="153.152" r="6.77966" fill="#008000" fill-opacity="0.15"/>
<circle cx="336.203" cy="193.83" r="6.77966" fill="#008000" fill-opacity="0.15"/>
<circle cx="336.203" cy="234.508" r="6.77966" fill="#008000" fill-opacity="0.15"/>
<ellipse cx="336.203" cy="275.186" rx="6.77966" ry="6.77966" fill="#008000" fill-opacity="0.15"/>
<circle cx="336.203" cy="315.865" r="6.77966" fill="#008000" fill-opacity="0.15"/>
<circle cx="336.203" cy="356.542" r="6.77966" fill="#008000" fill-opacity="0.15"/>
<circle cx="336.203" cy="397.22" r="6.77966" fill="#008000" fill-opacity="0.15"/>
<circle cx="356.542" cy="71.7965" r="6.77966" fill="#008000" fill-opacity="0.15"/>
<circle cx="356.542" cy="112.474" r="6.77966" fill="#008000" fill-opacity="0.15"/>
<circle cx="356.542" cy="153.152" r="6.77966" fill="#008000" fill-opacity="0.15"/>
<circle cx="356.542" cy="193.83" r="6.77966" fill="#008000" fill-opacity="0.15"/>
<circle cx="356.542" cy="234.508" r="6.77966" fill="#008000" fill-opacity="0.15"/>
<ellipse cx="356.542" cy="275.186" rx="6.77966" ry="6.77966" fill="#008000" fill-opacity="0.15"/>
<circle cx="356.542" cy="315.865" r="6.77966" fill="#008000" fill-opacity="0.15"/>
<circle cx="356.542" cy="356.542" r="6.77966" fill="#008000" fill-opacity="0.15"/>
<circle cx="356.542" cy="397.22" r="6.77966" fill="#008000" fill-opacity="0.15"/>
<circle cx="376.881" cy="71.7965" r="6.77966" fill="#008000" fill-opacity="0.15"/>
<circle cx="376.881" cy="112.474" r="6.77966" fill="#008000" fill-opacity="0.15"/>
<circle cx="376.881" cy="153.152" r="6.77966" fill="#008000" fill-opacity="0.15"/>
<circle cx="376.881" cy="193.83" r="6.77966" fill="#008000" fill-opacity="0.15"/>
<circle cx="376.881" cy="234.508" r="6.77966" fill="#008000" fill-opacity="0.15"/>
<ellipse cx="376.881" cy="275.186" rx="6.77966" ry="6.77966" fill="#008000" fill-opacity="0.15"/>
<circle cx="376.881" cy="315.865" r="6.77966" fill="#008000" fill-opacity="0.15"/>
<circle cx="376.881" cy="356.542" r="6.77966" fill="#008000" fill-opacity="0.15"/>
<circle cx="376.881" cy="397.22" r="6.77966" fill="#008000" fill-opacity="0.15"/>
<circle cx="397.22" cy="71.7965" r="6.77966" fill="#008000" fill-opacity="0.15"/>
<circle cx="397.22" cy="112.474" r="6.77966" fill="#008000" fill-opacity="0.15"/>
<circle cx="397.22" cy="153.152" r="6.77966" fill="#008000" fill-opacity="0.15"/>
<circle cx="397.22" cy="193.83" r="6.77966" fill="#008000" fill-opacity="0.15"/>
<circle cx="397.22" cy="234.508" r="6.77966" fill="#008000" fill-opacity="0.15"/>
<ellipse cx="397.22" cy="275.186" rx="6.77966" ry="6.77966" fill="#008000" fill-opacity="0.15"/>
<circle cx="397.22" cy="315.865" r="6.77966" fill="#008000" fill-opacity="0.15"/>
<circle cx="397.22" cy="356.542" r="6.77966" fill="#008000" fill-opacity="0.15"/>
<circle cx="397.22" cy="397.22" r="6.77966" fill="#008000" fill-opacity="0.15"/>
</g>
</g>
<defs>
<filter id="filter0_f_548_600" x="0" y="0" width="408" height="408" filterUnits="userSpaceOnUse" color-interpolation-filters="sRGB">
<feFlood flood-opacity="0" result="BackgroundImageFix"/>
<feBlend mode="normal" in="SourceGraphic" in2="BackgroundImageFix" result="shape"/>
<feGaussianBlur stdDeviation="2" result="effect1_foregroundBlur_548_600"/>
</filter>
<clipPath id="clip0_548_600">
<rect x="4" y="4" width="400" height="400" rx="200" fill="white"/>
</clipPath>
</defs>
</svg>
